<svg width="36" height="34" fill="none" xmlns="http://www.w3.org/2000/svg"><path d="m18 1.002 1.145 14.894 15.05 1.133-15.05 1.134L18 33.057l-1.145-14.894-15.05-1.134 15.05-1.133L18 1.002Z" fill="#BEABA1"/><path d="M26.589 8.5 18.85 17l7.739 8.5L18 17.841 9.411 25.5 17.15 17 9.41 8.5 18 16.159 26.589 8.5Z" fill="#BEABA1"/><path d="M26.735 17.03c0 4.768-3.907 8.64-8.735 8.64-4.828 0-8.735-3.872-8.735-8.64 0-4.769 3.907-8.641 8.735-8.641 4.828 0 8.735 3.872 8.735 8.64Z" stroke="#BEABA1" stroke-width=".75"/></svg>